<?xml version="1.0" standalone="no"?>
<!DOCTYPE svg PUBLIC "-//W3C//DTD SVG 20010904//EN"
 "http://www.w3.org/TR/2001/REC-SVG-20010904/DTD/svg10.dtd">
<svg version="1.0" xmlns="http://www.w3.org/2000/svg"
 width="569.000000pt" height="569.000000pt" viewBox="0 0 569.000000 569.000000"
 preserveAspectRatio="xMidYMid meet">
<metadata>
Created by potrace 1.11, written by Peter Selinger 2001-2013
</metadata>
<g transform="translate(0.000000,569.000000) scale(0.100000,-0.100000)"
fill="#000000" stroke="none">
<path d="M5361 3532 c-5 -2 2 -17 17 -33 60 -67 112 -168 126 -242 3 -12 5
-178 5 -369 l1 -348 50 -25 50 -25 0 377 c0 398 -4 443 -49 543 -11 25 -35 63
-53 84 -30 34 -38 38 -85 40 -28 1 -56 0 -62 -2z"/>
<path d="M4190 3524 c0 -4 15 -28 34 -54 68 -95 106 -200 106 -296 l0 -49
-2166 2 -2165 1 3 -36 3 -36 348 1 c191 0 347 -3 348 -6 8 -45 3 -130 -8 -148
-7 -12 -13 -31 -13 -42 0 -19 2 -19 60 5 67 27 113 36 182 37 58 0 108 -32
108 -70 0 -20 -4 -24 -17 -18 -123 50 -262 19 -349 -77 -27 -31 -34 -46 -34
-80 0 -132 191 -196 351 -119 51 25 49 25 49 8 0 -8 17 -19 37 -26 21 -7 43
-14 48 -17 14 -6 10 321 -5 376 -13 48 -49 86 -94 99 -34 9 -126 7 -193 -4
l-42 -7 2 43 3 44 457 1 457 1 0 -56 c0 -52 -7 -69 -91 -221 -106 -193 -110
-198 -133 -175 -14 14 -16 37 -14 148 3 144 -4 173 -53 209 -39 29 -123 32
-177 6 l-43 -21 32 -33 c35 -36 53 -42 66 -21 14 24 54 45 74 40 25 -7 24 -12
-7 -70 -31 -58 -29 -125 6 -194 25 -49 105 -129 153 -153 30 -15 33 -14 48 4
38 45 250 432 249 453 -5 53 1 88 13 86 25 -3 48 1 44 9 -3 4 -1 16 4 27 l9
20 -1 -20 c-1 -11 -1 -24 0 -30 1 -6 56 -9 147 -9 l145 2 -3 -36 c-3 -34 -4
-35 -53 -38 -72 -6 -111 -21 -140 -55 -34 -41 -34 -103 0 -153 l24 -36 -24 -6
c-28 -7 -75 -58 -75 -81 0 -28 38 -78 87 -113 60 -44 91 -43 214 7 120 48 172
50 205 7 37 -45 32 -95 -11 -138 -54 -55 -113 -57 -184 -7 -14 10 -48 31 -76
46 -166 92 -388 -39 -412 -243 l-5 -47 38 50 c82 107 185 171 293 182 64 6 67
5 207 -53 98 -41 151 -44 190 -11 21 19 28 34 30 71 5 92 -43 218 -94 248 -56
33 -113 25 -242 -32 -114 -51 -151 -55 -170 -19 -9 17 -8 25 7 41 30 33 69 48
141 53 122 9 150 15 175 39 32 30 44 86 27 127 -9 21 -10 33 -2 41 17 17 42 1
54 -33 l11 -31 29 32 c32 36 31 54 -7 90 -33 31 -71 29 -102 -5 -32 -34 -43
-21 -43 51 l0 51 120 0 120 1 0 -64 c0 -36 1 -124 3 -197 3 -122 5 -135 29
-172 53 -82 113 -116 209 -116 46 -1 72 6 119 29 54 27 60 29 60 12 0 -13 18
-27 56 -44 31 -14 58 -26 59 -26 5 0 4 455 -1 471 -3 12 -16 16 -57 15 l-52
-2 -5 -140 c-5 -135 -6 -143 -35 -189 -37 -59 -71 -85 -119 -92 -62 -8 -102
12 -128 65 -21 44 -22 60 -23 247 l0 200 541 2 541 1 1 -186 c0 -112 5 -199
11 -216 52 -133 208 -187 342 -118 51 26 59 28 59 13 0 -11 20 -27 55 -44 31
-15 58 -27 60 -27 3 0 5 109 5 243 l0 243 -57 -1 -58 0 -5 -146 -5 -146 -35
-52 c-38 -55 -84 -81 -143 -81 -42 0 -72 22 -97 70 -18 35 -20 59 -20 244 l0
204 263 -1 262 -2 0 -257 -1 -257 47 -21 c26 -11 50 -20 53 -20 3 0 5 57 5
128 0 70 4 138 9 152 17 45 91 129 130 149 71 36 130 11 117 -48 -10 -45 -47
-66 -118 -67 l-59 -1 -18 -41 c-10 -22 -15 -42 -11 -44 3 -2 40 -43 81 -93 41
-49 85 -101 97 -114 l22 -24 35 24 c40 27 42 31 24 51 -35 37 -110 129 -107
131 2 2 26 12 53 22 61 25 90 62 90 114 0 52 -26 89 -81 113 -61 27 -127 25
-198 -7 -32 -14 -59 -24 -61 -23 -3 4 -6 66 -5 105 l1 32 205 0 c153 0 205 -3
206 -12 0 -7 2 -93 3 -192 2 -188 4 -198 53 -262 65 -88 194 -111 305 -55 52
28 58 29 58 12 0 -13 17 -26 56 -44 31 -14 58 -26 60 -26 3 0 3 109 2 242 l-3
243 -57 0 -58 1 0 -131 c0 -116 -3 -136 -24 -181 -31 -66 -82 -106 -144 -112
-41 -3 -53 0 -79 22 -49 41 -57 80 -58 281 0 99 1 188 3 197 4 16 24 18 231
17 332 -1 298 -5 297 34 l-1 32 -518 1 c-284 1 -522 4 -529 7 -8 3 -14 27 -16
63 -5 105 -44 222 -103 305 -16 22 -26 26 -78 28 -34 1 -61 -1 -61 -5z m-1958
-601 c30 -27 24 -86 -14 -129 -77 -87 -188 -89 -201 -4 -15 90 150 192 215
133z m-1279 -180 c96 -26 95 -59 -4 -116 -56 -32 -120 -49 -185 -49 -60 -1
-94 15 -94 42 0 32 65 96 120 116 65 25 93 26 163 7z"/>
<path d="M5630 3092 c0 -37 1 -38 30 -34 27 4 30 8 30 38 0 31 -3 34 -30 34
-28 0 -30 -2 -30 -38z"/>
<path d="M260 2974 c-19 -8 -49 -26 -66 -39 -41 -31 -42 -31 -46 3 -3 25 -7
27 -51 29 l-47 2 0 -217 0 -218 45 -22 c25 -12 47 -22 48 -22 1 0 2 37 2 83
-1 143 20 223 77 297 52 67 150 90 215 50 39 -24 58 -82 48 -154 -8 -64 -27
-98 -87 -162 l-49 -52 58 -36 57 -36 23 28 c27 32 71 118 79 152 8 37 5 120
-6 161 -34 125 -185 203 -300 153z"/>
<path d="M3365 2976 c-22 -7 -55 -20 -72 -30 -32 -16 -33 -16 -33 2 0 15 -9
18 -55 20 l-55 1 0 -214 0 -215 51 -26 c28 -14 53 -23 56 -20 3 3 6 69 7 148
1 137 2 145 29 190 39 67 107 120 156 122 94 2 94 -76 -1 -121 l-36 -18 42
-48 43 -47 41 30 c81 59 92 132 27 189 -56 48 -124 61 -200 37z"/>
</g>
</svg>
